<svg xmlns="http://www.w3.org/2000/svg" viewBox="0 0 512 512"><defs><linearGradient id="bg" x1="0" y1="0" x2="1" y2="1"><stop offset="0" stop-color="#061022"/><stop offset=".5" stop-color="#0E3E78"/><stop offset="1" stop-color="#28206D"/></linearGradient><radialGradient id="g" cx="15%" cy="5%" r="70%"><stop offset="0" stop-color="#4ECDFF" stop-opacity=".62"/><stop offset="1" stop-color="#44E7B8" stop-opacity="0"/></radialGradient></defs><rect width="512" height="512" rx="112" fill="url(#bg)"/><rect width="512" height="512" rx="112" fill="url(#g)"/><circle cx="420" cy="30" r="165" fill="#7B75FF" opacity=".34"/><circle cx="35" cy="470" r="185" fill="#44E7B8" opacity=".28"/><rect x="83" y="82" width="346" height="328" rx="92" fill="#fff" opacity=".18" stroke="#fff" stroke-opacity=".38" stroke-width="2"/><rect x="112" y="112" width="288" height="268" rx="66" fill="#050E1E" opacity=".92" stroke="#fff" stroke-opacity=".16"/><circle cx="188" cy="205" r="56" fill="none" stroke="#fff" stroke-opacity=".16" stroke-width="18"/><path d="M188 149a56 56 0 1 1-43 91" fill="none" stroke="#44E7B8" stroke-width="18" stroke-linecap="round"/><path d="M162 206l21 21 36-52" fill="none" stroke="#fff" stroke-width="14" stroke-linecap="round" stroke-linejoin="round"/><rect x="285" y="182" width="16" height="75" rx="8" fill="#44E7B8"/><rect x="312" y="155" width="16" height="102" rx="8" fill="#62CFFF"/><rect x="339" y="169" width="16" height="88" rx="8" fill="#7B75FF"/><rect x="366" y="138" width="16" height="119" rx="8" fill="#FFD562"/><rect x="138" y="290" width="236" height="64" rx="32" fill="#fff" opacity=".17"/><path d="M155 322h25l16-21 20 41 18-29h20l21 12 23-32 19 29h40" fill="none" stroke="#44E7B8" stroke-width="10" stroke-linecap="round" stroke-linejoin="round"/><circle cx="361" cy="141" r="10" fill="#FFD562"/></svg>